<?xml version="1.0" standalone="no"?>
<!DOCTYPE svg PUBLIC "-//W3C//DTD SVG 20010904//EN"
 "http://www.w3.org/TR/2001/REC-SVG-20010904/DTD/svg10.dtd">
<svg version="1.0" xmlns="http://www.w3.org/2000/svg"
 width="1930.000000pt" height="981.000000pt" viewBox="0 0 1930.000000 981.000000"
 preserveAspectRatio="xMidYMid meet">

<g transform="translate(0.000000,981.000000) scale(0.100000,-0.100000)"
fill="#000000" stroke="none">
<path d="M4649 8875 c-706 -128 -2514 -1159 -3090 -1762 -87 -91 -131 -152
-164 -228 -129 -290 -207 -1011 -207 -1895 1 -969 92 -1704 243 -1955 64 -108
263 -300 484 -471 616 -474 1593 -1036 2260 -1299 365 -144 563 -184 751 -151
759 132 2727 1277 3185 1852 85 107 136 245 183 499 72 383 108 898 108 1530
0 969 -92 1709 -243 1960 -314 523 -2428 1781 -3226 1920 -103 18 -182 18
-284 0z m393 -249 c516 -158 1366 -598 2103 -1089 476 -317 770 -570 849 -733
218 -445 254 -2648 57 -3446 -35 -142 -68 -210 -147 -302 -356 -418 -1863
-1335 -2678 -1631 -244 -88 -297 -100 -436 -99 -115 0 -134 3 -245 38 -785
244 -2308 1134 -2813 1644 -148 150 -193 267 -246 643 -121 855 -94 2400 53
2982 49 195 101 275 284 438 606 541 2102 1388 2767 1568 110 29 116 30 230
26 86 -2 126 -10 222 -39z"/>
<path d="M4715 8574 c-16 -3 -73 -16 -125 -30 -668 -179 -2196 -1055 -2742
-1572 -156 -148 -205 -246 -253 -508 -53 -287 -83 -647 -93 -1135 -22 -1007
48 -1830 180 -2108 66 -138 340 -376 765 -665 726 -492 1660 -976 2148 -1112
143 -40 268 -39 419 5 815 237 2570 1291 2860 1719 87 129 138 361 181 817 49
533 49 1487 0 2020 -43 456 -94 688 -181 817 -196 289 -1102 903 -2004 1357
-591 298 -962 425 -1155 395z m1372 -1962 c15 -10 46 -79 138 -312 40 -102
110 -277 154 -388 89 -224 95 -255 66 -367 -26 -99 -61 -162 -122 -223 -54
-53 -171 -122 -207 -122 -13 0 -15 -80 -18 -572 -4 -520 -6 -578 -22 -628 -66
-201 -221 -353 -399 -390 -37 -7 -318 -10 -922 -8 -831 3 -872 4 -920 22 -140
54 -263 160 -327 282 -67 127 -68 136 -68 744 l0 545 -74 33 c-175 79 -286
243 -286 423 0 67 4 77 195 506 107 241 202 444 212 451 13 9 289 12 1302 12
707 0 1291 -4 1298 -8z"/>
<path d="M3551 6483 c-8 -16 -317 -712 -327 -738 -3 -7 115 -10 341 -10 298 0
346 2 349 15 2 8 22 92 45 185 22 94 61 255 86 359 25 103 45 192 45 197 0 5
-117 9 -265 9 -241 0 -265 -2 -274 -17z"/>
<path d="M4217 6493 c-3 -5 -28 -107 -57 -228 -29 -121 -69 -289 -90 -372
l-37 -153 333 0 c183 0 339 -3 348 -6 14 -6 16 32 16 380 l0 386 -254 0 c-140
0 -257 -3 -259 -7z"/>
<path d="M4850 6120 l0 -380 345 0 c190 0 345 2 345 4 0 2 -18 77 -39 167 -22
90 -60 252 -86 359 -25 107 -49 203 -51 213 -5 16 -26 17 -260 17 l-254 0 0
-380z"/>
<path d="M5490 6488 c0 -7 39 -178 87 -380 l88 -368 327 0 327 0 -33 83 c-18
45 -86 216 -151 380 l-119 297 -263 0 c-204 0 -263 -3 -263 -12z"/>
<path d="M3200 5620 c0 -101 94 -226 210 -279 67 -31 77 -33 158 -29 75 3 96
9 150 38 104 55 174 150 188 254 l7 46 -357 0 -356 0 0 -30z"/>
<path d="M4035 5608 c11 -71 61 -162 116 -212 137 -124 355 -114 480 22 46 49
84 126 94 190 l7 42 -352 0 -352 0 7 -42z"/>
<path d="M4853 5601 c12 -100 82 -199 179 -252 60 -32 68 -34 163 -34 85 0
106 3 143 23 102 54 182 162 197 265 l7 47 -347 0 -348 0 6 -49z"/>
<path d="M5664 5603 c8 -66 59 -165 103 -204 20 -17 65 -45 100 -61 58 -27 71
-30 146 -26 92 4 148 26 215 84 48 41 98 137 108 207 l6 47 -342 0 -343 0 7
-47z"/>
<path d="M3941 5384 c-64 -93 -211 -181 -320 -191 l-62 -6 3 -561 3 -561 36
-75 c87 -179 231 -270 429 -270 l89 0 3 418 3 417 27 57 c53 114 177 205 311
228 41 8 167 10 348 8 284 -3 284 -3 341 -30 76 -35 151 -107 185 -177 l28
-56 3 -432 3 -433 134 0 c154 0 198 11 287 71 67 46 124 124 159 219 l24 65 0
555 0 555 -49 8 c-106 17 -222 89 -294 183 l-34 44 -28 -38 c-45 -61 -113
-117 -186 -153 -67 -33 -73 -34 -189 -34 -110 0 -125 2 -179 27 -83 39 -149
91 -192 150 l-38 51 -15 -24 c-43 -66 -108 -122 -189 -162 l-85 -42 -116 0
c-113 0 -118 1 -193 37 -81 39 -154 98 -189 154 -11 19 -24 34 -27 34 -4 0
-18 -16 -31 -36z"/>
<path d="M4456 4719 c-76 -18 -153 -77 -189 -144 -21 -39 -22 -52 -25 -447
l-3 -408 506 0 505 0 0 413 c0 459 0 456 -70 524 -69 67 -74 68 -395 70 -159
1 -308 -3 -329 -8z"/>
<path d="M17076 6591 c-3 -5 -18 -12 -33 -15 -16 -4 -59 -22 -96 -39 l-68 -32
7 -55 c3 -30 10 -60 15 -66 5 -6 5 -14 1 -18 -10 -11 50 5 65 16 6 5 37 12 67
15 31 3 56 10 56 14 0 5 12 9 26 9 21 0 25 3 19 18 -4 9 -10 50 -13 90 -4 61
-7 72 -23 72 -10 0 -20 -4 -23 -9z"/>
<path d="M9265 6540 c-102 -12 -296 -32 -327 -34 -44 -2 -32 -14 20 -21 55 -8
112 -31 130 -53 6 -9 12 -28 12 -43 0 -15 5 -31 10 -34 7 -4 10 -280 10 -796
l0 -789 23 4 c62 13 140 15 211 6 76 -10 110 -7 70 5 -41 13 -109 52 -109 62
0 6 -3 15 -7 19 -5 4 -8 18 -8 30 0 13 -4 26 -10 29 -7 4 -10 273 -10 774 0
656 2 770 14 780 22 18 257 26 340 12 37 -7 77 -17 89 -24 44 -24 109 -93 129
-137 11 -25 24 -53 29 -62 12 -23 12 -263 0 -286 -4 -9 -21 -44 -37 -77 -16
-33 -45 -76 -65 -95 -44 -43 -134 -90 -189 -97 -22 -3 -43 -10 -46 -14 -3 -5
-29 -9 -57 -10 -39 0 -47 -3 -32 -9 20 -9 157 -3 185 7 8 3 24 8 35 10 51 10
204 97 247 141 74 75 116 146 125 210 3 23 10 45 14 48 12 7 12 61 0 68 -4 3
-11 29 -14 58 -3 29 -15 71 -26 93 -22 40 -98 125 -114 125 -5 0 -22 9 -38 21
-16 11 -29 18 -29 14 0 -3 -10 1 -23 10 -69 45 -380 76 -552 55z"/>
<path d="M14102 6308 c-7 -7 -12 -17 -12 -23 0 -14 -90 -100 -112 -108 -14 -5
-18 -22 -20 -99 l-3 -93 -80 -11 c-95 -12 -115 -20 -115 -45 0 -17 9 -19 100
-19 l99 0 3 -517 c3 -560 0 -531 58 -596 41 -46 84 -61 177 -60 45 0 88 5 95
10 7 6 27 13 43 17 49 12 155 67 155 81 0 15 -28 10 -70 -12 -14 -7 -35 -13
-47 -13 -12 0 -25 -4 -28 -10 -7 -12 -145 -14 -145 -2 0 4 -10 12 -22 17 -39
18 -61 72 -65 165 -2 47 -9 94 -14 105 -6 12 -8 181 -7 425 l3 405 166 5 c101
3 171 9 180 16 8 7 29 15 47 19 18 4 32 13 32 21 0 12 -35 14 -205 14 l-205 0
0 141 c0 77 5 149 10 160 12 21 1 26 -18 7z"/>
<path d="M17900 6309 c0 -15 -109 -127 -131 -134 -17 -6 -19 -17 -19 -99 l0
-93 -72 -7 c-86 -8 -128 -24 -128 -48 0 -16 11 -18 100 -18 l100 0 0 -504 c0
-283 4 -507 9 -510 5 -3 12 -21 15 -39 7 -35 51 -83 99 -107 33 -16 190 -18
209 -3 7 6 28 14 47 18 44 9 153 66 159 83 5 16 -42 6 -73 -14 -11 -8 -32 -14
-47 -14 -15 0 -30 -4 -33 -10 -3 -5 -32 -10 -64 -10 -83 0 -133 29 -147 86 -4
16 -11 34 -15 40 -5 6 -8 234 -7 505 l3 494 162 6 c92 3 167 10 175 16 7 6 28
14 46 18 18 4 31 12 29 18 -3 9 -65 13 -210 15 l-207 2 0 145 c0 85 4 146 10
150 6 3 10 10 10 16 0 5 -4 9 -10 9 -5 0 -10 -5 -10 -11z"/>
<path d="M10525 6033 c-27 -2 -57 -7 -65 -10 -8 -4 -19 -8 -25 -8 -5 -1 -34
-6 -62 -10 -29 -4 -53 -12 -53 -17 0 -5 6 -8 13 -7 6 2 31 -3 54 -9 47 -14 83
-55 83 -95 0 -14 4 -29 10 -32 14 -9 14 -1034 -1 -1052 -19 -22 -6 -24 71 -12
67 10 96 9 188 -7 19 -4 32 -2 32 4 0 6 -18 13 -39 17 -22 4 -49 17 -62 31
l-24 26 -3 411 -3 412 36 35 c19 18 35 37 35 42 0 10 109 118 145 143 88 62
159 82 183 53 12 -16 32 -108 32 -149 0 -50 24 -28 35 32 6 30 13 59 16 64 4
6 10 38 14 73 l7 62 -71 0 c-39 0 -79 -4 -89 -9 -9 -5 -37 -18 -63 -30 -42
-19 -189 -156 -198 -184 -7 -23 -44 -57 -63 -57 -16 0 -18 10 -18 93 0 50 -6
115 -13 142 -14 55 -14 55 -102 48z"/>
<path d="M11890 6033 c-25 -2 -49 -8 -54 -14 -6 -5 -20 -9 -32 -9 -47 0 -164
-71 -238 -145 -83 -82 -81 -79 -162 -250 -7 -16 -17 -56 -20 -88 -4 -32 -11
-60 -15 -63 -12 -7 -12 -191 0 -198 4 -3 12 -33 15 -68 4 -34 14 -71 22 -82 8
-11 14 -31 14 -43 0 -13 4 -23 9 -23 5 0 12 -8 15 -17 13 -35 37 -73 47 -73 5
0 9 -6 9 -14 0 -16 138 -146 155 -146 6 0 27 -9 48 -20 20 -11 47 -20 60 -20
13 0 29 -6 35 -12 16 -16 245 -16 265 -1 6 6 30 13 53 16 40 7 125 46 155 73
8 8 20 14 25 14 19 0 66 57 54 65 -6 4 -19 0 -28 -8 -9 -9 -29 -19 -44 -22
-16 -4 -28 -11 -28 -15 0 -5 -13 -11 -30 -15 -16 -4 -30 -10 -30 -15 0 -4 -22
-11 -50 -15 -27 -4 -52 -11 -56 -16 -7 -12 -241 -12 -248 0 -3 5 -21 12 -39
15 -23 4 -54 27 -102 76 -38 39 -66 70 -62 70 5 0 -1 13 -12 28 -11 16 -23 40
-26 55 -4 15 -11 27 -15 27 -4 0 -11 21 -15 48 -4 26 -12 53 -17 60 -6 7 -13
79 -16 162 l-5 150 406 0 406 0 26 27 c24 27 35 73 16 73 -4 0 -11 30 -15 68
-4 48 -16 87 -41 137 -35 69 -127 175 -152 175 -7 0 -13 4 -13 9 0 5 -15 13
-32 16 -18 4 -37 11 -43 15 -13 11 -137 19 -195 13z m178 -73 c27 0 112 -76
112 -100 0 -10 7 -23 15 -30 8 -7 15 -20 15 -30 0 -10 6 -23 14 -29 17 -14 31
-128 22 -166 l-6 -25 -313 1 c-171 0 -320 4 -330 7 -40 17 -61 107 -33 147 7
11 16 34 20 50 4 18 34 58 74 100 78 80 80 81 261 78 69 -1 136 -3 149 -3z"/>
<path d="M13060 6033 c-19 -2 -44 -8 -55 -13 -11 -5 -37 -11 -57 -15 -21 -3
-38 -10 -38 -14 0 -5 -8 -12 -17 -15 -56 -20 -118 -76 -128 -114 -4 -15 -11
-30 -17 -33 -14 -9 -22 -105 -14 -163 8 -50 66 -122 166 -209 54 -47 75 -61
135 -92 34 -17 68 -38 75 -45 8 -8 43 -29 60 -37 34 -14 139 -115 154 -147 23
-49 23 -223 -1 -268 -30 -59 -71 -70 -251 -70 -104 0 -158 4 -160 11 -2 6 -12
11 -22 11 -10 0 -41 11 -69 26 l-51 25 -1 97 c-1 53 -4 88 -6 77 -3 -11 -12
-29 -19 -40 -8 -11 -14 -29 -14 -42 0 -12 -4 -24 -9 -27 -5 -4 -12 -25 -16
-49 -4 -23 -11 -47 -17 -54 -11 -13 -5 -18 54 -39 63 -24 152 -44 240 -56 108
-14 247 7 333 52 59 30 134 108 141 147 3 18 10 36 15 39 5 3 9 44 9 92 0 68
-5 97 -20 127 -20 40 -117 145 -133 145 -5 0 -26 14 -47 30 -21 17 -41 30 -45
30 -3 0 -21 11 -38 24 -18 14 -44 28 -59 31 -16 4 -28 11 -28 15 0 4 -8 10
-17 14 -10 3 -36 17 -58 30 -22 14 -49 29 -60 35 -27 12 -87 79 -106 115 -9
20 -14 62 -14 128 l0 99 42 40 c36 33 49 39 87 39 25 0 48 5 51 10 3 6 35 10
70 10 35 0 67 -4 70 -10 3 -5 22 -10 42 -10 20 0 55 -10 79 -22 l43 -21 3
-105 c2 -73 7 -107 16 -110 6 -2 12 3 12 11 0 8 7 28 15 43 8 16 15 37 15 46
0 9 4 20 10 23 5 3 12 28 16 55 4 28 11 50 16 50 40 0 -72 58 -129 67 -21 3
-42 9 -48 13 -12 10 -158 19 -205 13z"/>
<path d="M15270 6033 c-25 -2 -49 -8 -54 -14 -6 -5 -20 -9 -32 -9 -12 0 -55
-17 -96 -37 -105 -54 -212 -162 -262 -268 -21 -44 -43 -88 -48 -99 -5 -10 -12
-43 -15 -73 -3 -29 -10 -56 -14 -59 -12 -7 -12 -221 0 -228 4 -3 11 -30 15
-59 3 -30 13 -67 21 -83 8 -16 15 -36 15 -45 0 -9 7 -22 15 -29 8 -7 15 -19
15 -26 0 -8 34 -50 75 -93 79 -83 190 -151 245 -151 14 0 31 -5 38 -12 16 -16
248 -16 264 0 7 7 21 12 31 12 17 0 48 14 97 41 8 5 26 14 39 19 14 6 63 50
111 98 83 84 160 205 160 251 0 9 5 22 10 27 6 6 13 34 17 63 3 28 9 53 12 55
11 7 -8 247 -24 305 -9 31 -30 84 -46 119 -32 65 -131 182 -155 182 -8 0 -14
5 -14 10 0 6 -10 15 -22 20 -13 6 -30 14 -38 19 -30 19 -89 41 -107 41 -10 0
-23 4 -28 9 -12 11 -161 20 -225 14z m207 -72 c17 -1 38 -8 47 -16 8 -8 19
-15 26 -15 18 0 100 -82 100 -100 0 -10 7 -20 15 -24 8 -3 15 -17 15 -31 0
-14 7 -28 15 -31 8 -4 15 -15 15 -27 0 -11 8 -29 17 -39 15 -17 17 -51 17
-323 1 -274 -1 -305 -17 -322 -9 -11 -17 -27 -17 -35 0 -9 -7 -21 -15 -28 -8
-7 -15 -20 -15 -29 0 -21 -67 -86 -97 -95 -11 -4 -27 -13 -33 -21 -10 -12 -45
-15 -180 -15 -154 0 -168 2 -185 20 -10 11 -25 20 -34 20 -22 0 -151 130 -151
153 0 9 -7 20 -15 23 -8 4 -15 16 -15 29 0 12 -9 30 -20 40 -19 17 -20 31 -20
319 0 239 3 306 14 321 7 11 16 34 20 50 7 33 108 145 130 145 8 0 19 6 26 14
6 8 26 16 43 18 27 3 207 2 314 -1z"/>
<path d="M17030 6033 c-36 -2 -74 -7 -85 -12 -11 -6 -41 -12 -68 -16 -26 -3
-45 -10 -42 -15 3 -5 12 -7 19 -4 8 3 17 1 21 -5 3 -6 14 -11 24 -11 31 0 69
-52 85 -116 14 -52 16 -139 16 -556 0 -342 -3 -497 -11 -505 -19 -19 6 -23 67
-12 56 11 140 8 212 -7 19 -4 32 -2 32 4 0 5 -14 12 -32 16 -18 3 -45 19 -61
34 -58 55 -57 48 -57 616 0 302 -4 526 -9 532 -5 5 -11 20 -13 34 -3 27 -5 28
-98 23z"/>
<path d="M16435 5010 c-3 -5 -17 -10 -30 -10 -33 0 -136 -41 -142 -57 -3 -7 0
-19 5 -26 6 -7 14 -32 18 -55 4 -23 10 -42 15 -42 5 0 9 -11 9 -25 0 -18 5
-25 20 -25 11 0 20 4 20 9 0 5 12 11 28 14 39 7 133 35 139 41 3 2 -2 15 -11
28 -9 12 -16 37 -16 55 0 17 -4 35 -10 38 -5 3 -10 19 -10 36 0 29 -22 41 -35
19z"/>
<path d="M9241 4256 c10 -9 199 -15 199 -6 0 6 -42 10 -102 10 -56 0 -99 -2
-97 -4z"/>
<path d="M9507 4253 c-4 -6 -9 -37 -13 -69 -4 -33 -10 -63 -15 -69 -4 -5 -11
-44 -14 -85 -4 -41 -11 -79 -15 -85 -4 -5 -10 -37 -14 -70 -7 -64 -10 -81 -19
-105 -3 -8 -8 -38 -10 -65 -3 -28 -7 -57 -9 -65 -3 -13 27 -15 191 -18 177 -2
199 -1 237 17 25 12 45 30 50 43 3 13 14 34 24 48 9 14 15 31 12 38 -2 8 2 25
9 39 10 19 10 28 1 43 -7 11 -12 25 -12 32 0 6 -7 19 -15 27 -8 9 -17 36 -21
59 -5 35 -4 42 10 42 9 0 16 6 16 14 0 8 9 18 20 21 13 4 20 16 21 33 1 15 3
48 5 73 3 40 -1 50 -26 74 l-30 29 -189 4 c-119 3 -191 1 -194 -5z m235 -140
c18 -16 24 -57 12 -87 -7 -19 -84 -22 -102 -4 -13 13 -16 67 -4 84 17 26 68
30 94 7z m-38 -259 c9 -8 16 -30 16 -48 0 -29 -4 -34 -29 -39 -44 -9 -69 2
-76 33 -9 41 10 70 45 70 16 0 36 -7 44 -16z"/>
<path d="M15385 4163 c-51 -5 -124 -39 -132 -61 -4 -9 -12 -21 -20 -25 -7 -4
-13 -19 -13 -32 0 -14 -4 -25 -9 -25 -5 0 -13 -24 -16 -54 -12 -97 33 -143
155 -155 64 -6 65 -6 65 -36 l0 -30 -109 -3 c-67 -2 -113 1 -121 8 -10 9 -15
4 -20 -22 -4 -18 -11 -37 -15 -43 -4 -5 -10 -22 -14 -37 -6 -26 -5 -26 59 -33
105 -12 260 -2 282 17 10 9 27 18 37 19 13 3 23 17 29 39 5 19 14 38 20 42 6
3 13 34 15 68 4 52 1 66 -18 92 -12 16 -23 37 -24 46 -2 13 -15 18 -52 20 -96
4 -114 11 -114 37 0 18 5 25 19 25 11 0 23 5 26 10 3 6 17 10 30 10 13 0 27
-4 30 -10 3 -5 26 -10 50 -10 41 0 44 2 50 33 4 17 11 37 15 42 4 6 10 22 13
36 7 26 6 26 -56 28 -34 1 -75 3 -92 5 -16 2 -48 1 -70 -1z"/>
<path d="M16145 4161 c-65 -11 -102 -30 -130 -67 -15 -20 -28 -41 -29 -47 -1
-7 -5 -18 -10 -25 -4 -7 -10 -36 -12 -65 -5 -57 8 -93 41 -111 11 -6 23 -14
26 -19 3 -4 39 -11 79 -15 74 -7 74 -7 74 -37 l0 -30 -108 -3 c-60 -1 -113 2
-120 7 -8 7 -15 2 -23 -17 -18 -42 -33 -105 -27 -111 3 -3 77 -6 164 -6 136 0
161 2 177 18 11 9 27 17 36 17 9 0 17 7 17 15 0 8 9 31 20 50 11 20 23 62 26
93 5 48 3 61 -15 84 -24 29 -96 68 -129 68 -38 0 -72 19 -72 40 0 15 7 20 24
20 14 0 28 5 31 10 8 13 48 13 62 -1 6 -6 28 -9 49 -7 33 3 40 7 48 33 5 17
14 41 20 54 14 31 -13 51 -68 51 -23 0 -57 2 -76 4 -19 2 -53 1 -75 -3z"/>
<path d="M9276 4151 c15 -15 144 -18 144 -3 0 8 -22 12 -77 12 -47 0 -73 -4
-67 -9z"/>
<path d="M10030 4150 c0 -6 28 -10 65 -10 37 0 65 4 65 10 0 6 -28 10 -65 10
-37 0 -65 -4 -65 -10z"/>
<path d="M10225 4151 c-3 -5 -1 -12 5 -16 5 -3 10 -19 10 -34 0 -15 3 -31 7
-35 4 -3 8 -14 9 -24 9 -76 18 -119 28 -131 7 -9 11 -66 11 -153 l0 -139 70 3
70 3 10 70 c11 77 48 161 118 267 10 16 15 28 11 28 -4 0 2 10 13 23 19 20 73
125 73 140 0 4 -27 7 -59 7 -54 0 -61 -3 -78 -27 -19 -29 -42 -76 -65 -130
-13 -34 -35 -42 -56 -21 -7 7 -12 39 -12 76 0 94 -7 102 -90 102 -38 0 -71 -4
-75 -9z"/>
<path d="M11120 4150 c0 -6 28 -10 65 -10 37 0 65 4 65 10 0 6 -28 10 -65 10
-37 0 -65 -4 -65 -10z"/>
<path d="M11326 4144 c-9 -8 -16 -23 -16 -33 0 -9 -7 -26 -15 -37 -8 -10 -15
-25 -15 -33 0 -13 -11 -39 -66 -156 -13 -28 -24 -57 -24 -66 0 -8 -7 -24 -15
-35 -8 -10 -15 -26 -15 -34 0 -8 -11 -37 -25 -64 -13 -27 -22 -53 -19 -58 8
-13 130 -9 141 5 6 6 13 24 17 40 6 27 7 27 85 27 l79 0 9 -37 9 -38 73 -3 72
-3 -6 178 c-4 98 -11 182 -16 187 -5 6 -9 47 -9 93 l0 83 -114 0 c-91 0 -118
-3 -130 -16z m123 -236 c15 -25 14 -29 -8 -52 -14 -15 -30 -26 -37 -26 -36 0
-59 71 -32 98 20 20 61 10 77 -20z"/>
<path d="M11825 4151 c13 -12 138 -17 145 -5 3 5 -31 10 -75 12 -52 2 -76 0
-70 -7z"/>
<path d="M12052 4148 c-6 -6 -12 -22 -12 -34 0 -13 -4 -25 -9 -28 -5 -3 -12
-32 -16 -63 -4 -32 -10 -62 -15 -68 -4 -5 -11 -36 -14 -67 -4 -32 -11 -60 -15
-63 -7 -4 -23 -81 -25 -122 -1 -6 -5 -15 -9 -19 -4 -4 -7 -20 -7 -36 l0 -28
74 0 74 0 5 43 c3 23 12 68 19 100 11 49 15 57 35 57 22 0 23 -3 23 -83 0
-107 8 -119 80 -115 50 3 54 5 62 33 4 17 14 44 22 60 8 17 21 45 28 63 9 24
18 32 33 30 16 -2 21 -12 23 -52 2 -27 -2 -54 -7 -59 -6 -6 -11 -26 -11 -44
l0 -33 74 0 c82 0 84 2 90 80 10 144 20 226 26 235 5 6 11 59 15 118 l7 108
-97 -3 c-107 -3 -103 -1 -130 -78 -6 -19 -19 -49 -30 -75 -8 -16 -20 -45 -27
-63 -9 -24 -18 -32 -33 -30 -18 3 -21 15 -30 123 l-10 120 -90 3 c-62 2 -94
-1 -103 -10z"/>
<path d="M12765 4151 c14 -13 146 -19 142 -6 -2 6 -37 11 -78 13 -48 2 -70 0
-64 -7z"/>
<path d="M12976 4152 c-3 -5 -8 -36 -12 -68 -3 -33 -8 -66 -11 -74 -9 -24 -12
-41 -19 -105 -4 -33 -10 -64 -14 -70 -4 -5 -11 -46 -15 -90 -4 -44 -11 -85
-17 -92 -5 -7 -7 -17 -3 -23 8 -12 321 -14 329 -1 3 5 22 12 41 15 19 4 35 12
35 17 0 6 9 24 21 40 11 16 17 29 13 29 -5 0 -3 5 4 12 17 17 16 108 -1 108
-20 0 -47 33 -47 57 0 21 29 53 47 53 6 0 16 26 22 58 9 46 9 64 -3 97 l-14
40 -175 3 c-97 1 -178 -2 -181 -6z m193 -130 c7 -14 6 -25 -5 -40 -18 -26 -37
-28 -54 -7 -10 12 -9 20 4 40 19 30 41 32 55 7z m-19 -202 c17 0 20 -34 5 -57
-24 -36 -69 -29 -73 12 -4 31 22 60 46 50 8 -3 17 -5 22 -5z"/>
<path d="M13515 4150 c3 -5 40 -10 81 -10 43 0 74 4 74 10 0 6 -34 10 -81 10
-51 0 -78 -4 -74 -10z"/>
<path d="M13740 4141 c-5 -11 -10 -38 -10 -60 0 -22 -4 -42 -9 -45 -5 -4 -12
-41 -16 -84 -4 -42 -11 -81 -15 -87 -7 -10 -22 -121 -22 -157 1 -10 -3 -20 -9
-23 -5 -4 -9 -19 -9 -36 l0 -29 75 0 75 0 0 29 c0 16 5 52 12 80 10 44 15 51
35 51 14 0 26 -7 29 -17 3 -10 9 -25 14 -34 5 -9 11 -37 15 -63 l7 -46 89 0
c55 0 89 4 89 10 0 6 -6 13 -14 16 -8 3 -17 25 -21 49 -3 25 -10 47 -16 50
-22 14 -8 54 30 87 32 27 40 42 46 81 4 26 11 47 16 47 14 0 11 84 -4 111 -6
13 -23 39 -36 57 l-25 32 -158 0 c-145 0 -158 -1 -168 -19z m224 -127 c8 -22
7 -67 -2 -82 -5 -7 -26 -15 -47 -19 -44 -7 -65 12 -65 58 0 51 9 59 60 59 34
0 50 -4 54 -16z"/>
<path d="M14300 4150 c0 -6 30 -10 70 -10 40 0 70 4 70 10 0 6 -30 10 -70 10
-40 0 -70 -4 -70 -10z"/>
<path d="M14516 4152 c-4 -7 -14 -53 -20 -94 -1 -10 -5 -21 -9 -24 -4 -4 -7
-23 -7 -43 -1 -20 -7 -63 -15 -96 -8 -33 -15 -76 -15 -96 0 -20 -3 -39 -7 -43
-7 -7 -9 -13 -19 -88 l-7 -48 172 0 c129 0 173 3 176 13 2 6 6 33 10 60 l6 47
-90 0 -91 0 0 55 0 55 80 0 c56 0 82 4 84 13 20 63 21 62 -57 62 l-72 0 -3 48
-3 47 90 0 c53 0 92 4 92 10 2 16 8 35 30 88 5 13 7 28 4 33 -7 11 -322 12
-329 1z"/>
<path d="M15070 4150 c0 -6 28 -10 65 -10 37 0 65 4 65 10 0 6 -28 10 -65 10
-37 0 -65 -4 -65 -10z"/>
<path d="M15835 4150 c3 -5 33 -10 66 -10 33 0 59 4 59 10 0 6 -29 10 -66 10
-41 0 -63 -4 -59 -10z"/>
<path d="M16880 4150 c0 -6 30 -10 70 -10 40 0 70 4 70 10 0 6 -30 10 -70 10
-40 0 -70 -4 -70 -10z"/>
<path d="M17095 4151 c-3 -6 -9 -34 -12 -63 -3 -29 -9 -57 -13 -63 -4 -5 -10
-37 -14 -70 -8 -79 -11 -93 -19 -101 -4 -4 -7 -23 -7 -43 0 -20 -7 -63 -15
-96 -24 -98 -25 -95 58 -95 l72 0 19 100 c16 91 20 100 39 100 18 -1 32 -21
71 -100 l50 -100 55 0 c52 0 57 2 68 28 6 15 15 59 19 97 3 39 10 75 14 80 4
6 11 46 15 90 4 44 11 85 15 90 4 6 10 35 13 65 3 30 7 62 9 70 2 12 -10 16
-60 18 -37 2 -69 -2 -77 -8 -8 -6 -16 -44 -20 -88 -4 -43 -14 -84 -22 -93 -20
-24 -51 -12 -58 22 -4 16 -11 29 -16 29 -5 0 -9 6 -9 13 0 6 -13 37 -28 67
l-28 55 -56 3 c-31 2 -59 -2 -63 -7z"/>
<path d="M17830 4150 c0 -6 28 -10 65 -10 37 0 65 4 65 10 0 6 -28 10 -65 10
-37 0 -65 -4 -65 -10z"/>
<path d="M18042 4148 c-7 -7 -12 -18 -12 -25 0 -7 -4 -13 -10 -13 -5 0 -10 -8
-10 -17 -1 -10 -9 -36 -20 -58 -11 -22 -19 -44 -20 -50 0 -5 -12 -35 -26 -65
-14 -30 -32 -68 -39 -85 -7 -16 -23 -52 -35 -80 -22 -48 -50 -123 -50 -132 0
-2 33 -3 73 -1 39 2 70 5 67 8 -3 3 5 20 18 38 23 31 25 32 97 32 l74 0 3 -37
3 -38 80 0 80 0 3 34 c2 19 -1 44 -6 55 -6 12 -14 91 -18 176 -14 299 0 270
-133 270 -70 0 -111 -4 -119 -12z m97 -177 c11 -7 13 -23 8 -72 -4 -34 -9 -64
-12 -67 -9 -10 -58 -4 -65 8 -8 13 4 91 20 120 12 22 27 25 49 11z"/>
<path d="M9310 4044 c38 -8 90 -9 90 -2 0 4 -24 7 -52 7 -29 -1 -46 -3 -38 -5z"/>
<path d="M10113 4043 c15 -2 39 -2 55 0 15 2 2 4 -28 4 -30 0 -43 -2 -27 -4z"/>
<path d="M11138 4043 c12 -2 32 -2 45 0 12 2 2 4 -23 4 -25 0 -35 -2 -22 -4z"/>
<path d="M11841 4046 c7 -8 108 -10 115 -3 4 4 -21 7 -56 7 -35 0 -61 -2 -59
-4z"/>
<path d="M12800 4044 c38 -8 90 -9 90 -2 0 4 -24 7 -52 7 -29 -1 -46 -3 -38
-5z"/>
<path d="M13568 4043 c18 -2 45 -2 60 0 15 2 0 4 -33 4 -33 0 -45 -2 -27 -4z"/>
<path d="M14311 4046 c7 -8 108 -10 115 -3 4 4 -21 7 -56 7 -35 0 -61 -2 -59
-4z"/>
<path d="M15035 4045 c25 -8 115 -11 115 -4 0 5 -28 9 -62 8 -35 0 -58 -2 -53
-4z"/>
<path d="M15828 4043 c18 -2 45 -2 60 0 15 2 0 4 -33 4 -33 0 -45 -2 -27 -4z"/>
<path d="M16895 4045 c25 -8 115 -11 115 -4 0 5 -28 9 -62 8 -35 0 -58 -2 -53
-4z"/>
<path d="M17853 4043 c15 -2 37 -2 50 0 12 2 0 4 -28 4 -27 0 -38 -2 -22 -4z"/>
<path d="M9273 3943 c98 -15 115 -14 102 6 -4 7 -44 11 -103 10 l-97 -1 98
-15z"/>
<path d="M10050 3950 c25 -4 72 -11 105 -15 53 -6 58 -5 46 9 -11 13 -32 16
-105 15 -76 -1 -84 -3 -46 -9z"/>
<path d="M11015 3950 c74 -15 148 -16 152 -2 4 9 -19 12 -94 11 -77 -1 -90 -3
-58 -9z"/>
<path d="M11810 3944 c96 -14 126 -13 115 6 -4 6 -49 9 -108 9 l-102 -2 95
-13z"/>
<path d="M12750 3944 c120 -18 136 -18 120 1 -10 12 -34 15 -109 14 l-96 -2
85 -13z"/>
<path d="M13510 3944 c100 -17 120 -17 120 1 0 12 -17 15 -97 14 l-98 -2 75
-13z"/>
<path d="M14275 3945 c108 -18 125 -18 125 0 0 12 -18 15 -102 14 l-103 -1 80
-13z"/>
<path d="M15000 3945 c101 -18 120 -18 120 0 0 12 -17 15 -97 14 l-98 -1 75
-13z"/>
<path d="M15765 3945 c108 -18 125 -18 125 0 0 12 -18 15 -102 14 l-103 -1 80
-13z"/>
<path d="M16860 3944 c100 -17 120 -17 120 1 0 12 -17 15 -97 14 l-98 -2 75
-13z"/>
<path d="M17765 3944 c92 -14 115 -13 115 6 0 6 -38 10 -102 9 l-103 -2 90
-13z"/>
<path d="M9270 3843 c35 -2 70 -9 77 -15 10 -8 13 -6 13 6 0 14 -12 16 -77 14
l-78 -2 65 -3z"/>
<path d="M10105 3844 c46 -7 123 -8 118 -1 -2 4 -34 6 -71 6 -37 -1 -58 -3
-47 -5z"/>
<path d="M10981 3846 c7 -7 139 -10 146 -3 3 4 -29 7 -72 7 -43 0 -76 -2 -74
-4z"/>
<path d="M11820 3840 c41 -4 79 -4 85 1 5 5 -27 8 -75 8 l-85 -2 75 -7z"/>
<path d="M12760 3843 c35 -2 69 -8 76 -13 6 -6 14 -7 17 -3 18 18 0 23 -75 21
-80 -2 -81 -2 -18 -5z"/>
<path d="M13480 3844 c37 -8 140 -9 140 -2 0 4 -35 7 -77 7 -43 -1 -71 -3 -63
-5z"/>
<path d="M14290 3843 c35 -2 69 -8 76 -13 12 -11 26 -2 18 11 -3 5 -40 8 -82
7 l-77 -2 65 -3z"/>
<path d="M15021 3846 c7 -8 108 -10 115 -3 4 4 -21 7 -56 7 -35 0 -61 -2 -59
-4z"/>
<path d="M15791 3846 c7 -8 108 -10 115 -3 4 4 -21 7 -56 7 -35 0 -61 -2 -59
-4z"/>
<path d="M16830 3844 c36 -8 138 -9 134 -2 -3 4 -38 7 -77 7 -40 -1 -65 -3
-57 -5z"/>
<path d="M17728 3843 c23 -2 59 -2 80 0 20 2 1 4 -43 4 -44 0 -61 -2 -37 -4z"/>
<path d="M16562 3777 c-12 -13 -22 -31 -22 -40 0 -9 -4 -19 -10 -22 -15 -9
-12 -71 5 -85 25 -21 90 -24 126 -6 17 9 38 16 46 16 11 0 13 17 11 78 l-3 77
-65 3 c-58 2 -68 0 -88 -21z"/>
<path d="M9268 3733 c18 -2 45 -2 60 0 15 2 0 4 -33 4 -33 0 -45 -2 -27 -4z"/>
<path d="M10158 3733 c18 -2 45 -2 60 0 15 2 0 4 -33 4 -33 0 -45 -2 -27 -4z"/>
<path d="M11003 3733 c15 -2 39 -2 55 0 15 2 2 4 -28 4 -30 0 -43 -2 -27 -4z"/>
<path d="M11788 3733 c17 -2 47 -2 65 0 17 2 3 4 -33 4 -36 0 -50 -2 -32 -4z"/>
<path d="M12753 3733 c15 -2 39 -2 55 0 15 2 2 4 -28 4 -30 0 -43 -2 -27 -4z"/>
<path d="M13508 3733 c17 -2 47 -2 65 0 17 2 3 4 -33 4 -36 0 -50 -2 -32 -4z"/>
<path d="M14293 3733 c15 -2 39 -2 55 0 15 2 2 4 -28 4 -30 0 -43 -2 -27 -4z"/>
<path d="M15013 3733 c15 -2 39 -2 55 0 15 2 2 4 -28 4 -30 0 -43 -2 -27 -4z"/>
<path d="M15783 3733 c15 -2 39 -2 55 0 15 2 2 4 -28 4 -30 0 -43 -2 -27 -4z"/>
<path d="M16438 3733 c6 -2 18 -2 25 0 6 3 1 5 -13 5 -14 0 -19 -2 -12 -5z"/>
<path d="M16873 3733 c15 -2 39 -2 55 0 15 2 2 4 -28 4 -30 0 -43 -2 -27 -4z"/>
<path d="M17713 3733 c15 -2 39 -2 55 0 15 2 2 4 -28 4 -30 0 -43 -2 -27 -4z"/>
<path d="M9260 3630 c0 -5 16 -10 35 -10 19 0 35 5 35 10 0 6 -16 10 -35 10
-19 0 -35 -4 -35 -10z"/>
<path d="M10150 3630 c0 -5 16 -10 35 -10 19 0 35 5 35 10 0 6 -16 10 -35 10
-19 0 -35 -4 -35 -10z"/>
<path d="M10980 3630 c0 -5 11 -10 25 -10 14 0 25 5 25 10 0 6 -11 10 -25 10
-14 0 -25 -4 -25 -10z"/>
<path d="M11780 3630 c0 -5 16 -10 35 -10 19 0 35 5 35 10 0 6 -16 10 -35 10
-19 0 -35 -4 -35 -10z"/>
<path d="M12750 3630 c0 -5 16 -10 35 -10 19 0 35 5 35 10 0 6 -16 10 -35 10
-19 0 -35 -4 -35 -10z"/>
<path d="M13515 3630 c3 -5 19 -10 36 -10 16 0 29 5 29 10 0 6 -16 10 -36 10
-21 0 -33 -4 -29 -10z"/>
<path d="M14280 3630 c0 -5 16 -10 35 -10 19 0 35 5 35 10 0 6 -16 10 -35 10
-19 0 -35 -4 -35 -10z"/>
<path d="M14990 3630 c0 -5 16 -10 35 -10 19 0 35 5 35 10 0 6 -16 10 -35 10
-19 0 -35 -4 -35 -10z"/>
<path d="M15760 3630 c0 -5 16 -10 35 -10 19 0 35 5 35 10 0 6 -16 10 -35 10
-19 0 -35 -4 -35 -10z"/>
<path d="M16450 3630 c0 -5 5 -10 10 -10 6 0 10 5 10 10 0 6 -4 10 -10 10 -5
0 -10 -4 -10 -10z"/>
<path d="M16860 3630 c0 -5 16 -10 35 -10 19 0 35 5 35 10 0 6 -16 10 -35 10
-19 0 -35 -4 -35 -10z"/>
<path d="M17680 3630 c0 -5 16 -10 35 -10 19 0 35 5 35 10 0 6 -16 10 -35 10
-19 0 -35 -4 -35 -10z"/>
</g>
</svg>
